<svg xmlns="http://www.w3.org/2000/svg" xmlns:xlink="http://www.w3.org/1999/xlink" x="0" y="0" width="662" height="333.925" style="
        width:662px;
        height:333.925px;
        background: transparent;
        fill: none;
">
        
        
        <svg xmlns="http://www.w3.org/2000/svg" class="role-diagram-draw-area"><g class="shapes-region" style="stroke: black; fill: none;"><g class="composite-shape"><path class="real" d=" M265.92,192.12 C265.92,211.45 281.59,227.12 300.92,227.12 C320.25,227.12 335.92,211.45 335.92,192.12 C335.92,172.79 320.25,157.12 300.92,157.12 C281.59,157.12 265.92,172.79 265.92,192.12 Z" style="stroke-width: 1; stroke: rgb(0, 0, 0); fill: none; fill-opacity: 1;"/></g><g class="arrow-line"><path class="connection real" stroke-dasharray="" d="  M50,70 L140,70" style="stroke: rgb(0, 0, 0); stroke-width: 1; fill: none; fill-opacity: 1;"/><g stroke="#000" fill="#000" transform="matrix(1,0,0,1,50,70)" style="stroke: rgb(0, 0, 0); fill: rgb(0, 0, 0); stroke-width: 1;"><circle cx="0" cy="0" r="3.35"/></g></g><g class="arrow-line"><path class="connection real" stroke-dasharray="" d="  M50,120 L140,120" style="stroke: rgb(0, 0, 0); stroke-width: 1; fill: none; fill-opacity: 1;"/><g stroke="#000" fill="#000" transform="matrix(1,0,0,1,50,120)" style="stroke: rgb(0, 0, 0); fill: rgb(0, 0, 0); stroke-width: 1;"><circle cx="0" cy="0" r="3.35"/></g></g><g class="arrow-line"><path class="connection real" stroke-dasharray="" d="  M50,280 L140,280" style="stroke: rgb(0, 0, 0); stroke-width: 1; fill: none; fill-opacity: 1;"/><g stroke="#000" fill="#000" transform="matrix(1,0,0,1,50,280)" style="stroke: rgb(0, 0, 0); fill: rgb(0, 0, 0); stroke-width: 1;"><circle cx="0" cy="0" r="3.35"/></g></g><g class="arrow-line"><path class="connection real" stroke-dasharray="" d="  M180,70 L274.1,166.67" style="stroke: rgb(0, 0, 0); stroke-width: 1; fill: none; fill-opacity: 1;"/><g stroke="none" fill="#000" transform="matrix(-0.6975403807879086,-0.716545474600363,0.716545474600363,-0.6975403807879086,275.5,168.0999984741211)" style="stroke: none; fill: rgb(0, 0, 0); stroke-width: 1;"><path d=" M12,-3 L0,0 L12,3 Z"/></g></g><g class="arrow-line"><path class="connection real" stroke-dasharray="" d="  M180.5,119.5 L267.31,174.04" style="stroke: rgb(0, 0, 0); stroke-width: 1; fill: none; fill-opacity: 1;"/><g stroke="none" fill="#000" transform="matrix(-0.8467507287796858,-0.5319898526391936,0.5319898526391936,-0.8467507287796858,269,175.0999984741211)" style="stroke: none; fill: rgb(0, 0, 0); stroke-width: 1;"><path d=" M12,-3 L0,0 L12,3 Z"/></g></g><g class="arrow-line"><path class="connection real" stroke-dasharray="" d="  M180,280 L271.37,215.26" style="stroke: rgb(0, 0, 0); stroke-width: 1; fill: none; fill-opacity: 1;"/><g stroke="none" fill="#000" transform="matrix(-0.8159358299992461,0.5781424749345453,-0.5781424749345453,-0.8159358299992461,273.00000000000006,214.0999984741211)" style="stroke: none; fill: rgb(0, 0, 0); stroke-width: 1;"><path d=" M12,-3 L0,0 L12,3 Z"/></g></g><g class="arrow-line"><path class="connection real" stroke-dasharray="" d="  M335.5,193.14 L419.06,193.14" style="stroke: rgb(0, 0, 0); stroke-width: 1; fill: none; fill-opacity: 1;"/><g stroke="none" fill="#000" transform="matrix(-1,1.2246467991473532e-16,-1.2246467991473532e-16,-1,421.0555555555556,193.1388763509218)" style="stroke: none; fill: rgb(0, 0, 0); stroke-width: 1;"><path d=" M12,-3 L0,0 L12,3 Z"/></g></g><g class="arrow-line"><path class="connection real" stroke-dasharray="" d="  M300.45,45.57 L300.91,155.12" style="stroke: rgb(0, 0, 0); stroke-width: 1; fill: none; fill-opacity: 1;"/><g stroke="none" fill="#000" transform="matrix(-0.004188777955404692,-0.9999912270311376,0.9999912270311376,-0.004188777955404692,300.9193121693122,157.11538461538458)" style="stroke: none; fill: rgb(0, 0, 0); stroke-width: 1;"><path d=" M12,-3 L0,0 L12,3 Z"/></g></g><g class="composite-shape"><path class="real" d=" M140,63.14 C140,59.43 143.01,56.42 146.72,56.42 L173.28,56.42 C176.99,56.42 180,59.43 180,63.14 L180,83.28 C180,86.99 176.99,90 173.28,90 L146.72,90 C143.01,90 140,86.99 140,83.28 Z" style="stroke-width: 1; stroke: rgb(0, 0, 0); fill: none; fill-opacity: 1;"/></g><g class="composite-shape"><path class="real" d=" M140,113.14 C140,109.43 143.01,106.42 146.72,106.42 L173.28,106.42 C176.99,106.42 180,109.43 180,113.14 L180,133.28 C180,136.99 176.99,140 173.28,140 L146.72,140 C143.01,140 140,136.99 140,133.28 Z" style="stroke-width: 1; stroke: rgb(0, 0, 0); fill: none; fill-opacity: 1;"/></g><g class="composite-shape"><path class="real" d=" M140,273.14 C140,269.43 143.01,266.42 146.72,266.42 L173.28,266.42 C176.99,266.42 180,269.43 180,273.14 L180,293.28 C180,296.99 176.99,300 173.28,300 L146.72,300 C143.01,300 140,296.99 140,293.28 Z" style="stroke-width: 1; stroke: rgb(0, 0, 0); fill: none; fill-opacity: 1;"/></g><g class="arrow-line"><path class="connection real" stroke-dasharray="" d="  M300.92,157.12 L300.92,227.12" style="stroke: rgb(0, 0, 0); stroke-width: 1; fill: none; fill-opacity: 1;"/></g><g/></g><g/><g/><g/></svg>
        <svg xmlns="http://www.w3.org/2000/svg" xmlns:xlink="http://www.w3.org/1999/xlink" width="660" height="331.9249999999997" style="width:660px;height:331.9249999999997px;font-family:LatinModern-Math, LatinModern, Asana-Math, Asana;background:transparent;"><g><g><g><g transform="matrix(1,0,0,1,56.2375,207.2674999999999)"><path transform="matrix(0.024480000000000002,0,0,-0.024480000000000002,0,0)" d="M162 -29C162 0 138 24 109 24C80 24 56 0 56 -29C56 -58 80 -82 109 -82C138 -82 162 -58 162 -29ZM162 250C162 279 138 303 109 303C80 303 56 279 56 250C56 221 80 197 109 197C138 197 162 221 162 250ZM162 529C162 558 138 582 109 582C80 582 56 558 56 529C56 500 80 476 109 476C138 476 162 500 162 529Z" stroke="rgb(0,0,0)" stroke-opacity="1" stroke-width="8" fill="rgb(0,0,0)" fill-opacity="1"></path></g></g></g></g><g><g><g><g transform="matrix(1,0,0,1,24.125,76.69999999999982)"><path transform="matrix(0.017,0,0,-0.017,0,0)" d="M527 376C527 428 468 442 434 442C376 442 341 389 329 366C304 432 250 442 221 442C117 442 60 313 60 288C60 278 72 278 72 278C80 278 83 280 85 289C119 395 185 420 219 420C238 420 273 411 273 353C273 322 256 255 219 115C203 53 168 11 124 11C118 11 95 11 74 24C99 29 121 50 121 78C121 105 99 113 84 113C54 113 29 87 29 55C29 9 79 -11 123 -11C189 -11 225 59 228 65C240 28 276 -11 336 -11C439 -11 496 118 496 143C496 153 487 153 484 153C475 153 473 149 471 142C438 35 370 11 338 11C299 11 283 43 283 77C283 99 289 121 300 165L334 302C340 328 363 420 433 420C438 420 462 420 483 407C455 402 435 377 435 353C435 337 446 318 473 318C495 318 527 336 527 376Z" stroke="rgb(0,0,0)" stroke-opacity="1" stroke-width="8" fill="rgb(0,0,0)" fill-opacity="1"></path></g></g><g><g><g><g><g transform="matrix(1,0,0,1,34.35,79.7125)"><path transform="matrix(0.0119,0,0,-0.0119,0,0)" d="M419 0L419 31L387 31C297 31 294 42 294 79L294 640C294 664 294 666 271 666C209 602 121 602 89 602L89 571C109 571 168 571 220 597L220 79C220 43 217 31 127 31L95 31L95 0C130 3 217 3 257 3C297 3 384 3 419 0Z" stroke="rgb(0,0,0)" stroke-opacity="1" stroke-width="8" fill="rgb(0,0,0)" fill-opacity="1"></path></g></g></g></g></g></g></g><g><g><g><g transform="matrix(1,0,0,1,21.799999999999997,126.79999999999995)"><path transform="matrix(0.017,0,0,-0.017,0,0)" d="M527 376C527 428 468 442 434 442C376 442 341 389 329 366C304 432 250 442 221 442C117 442 60 313 60 288C60 278 72 278 72 278C80 278 83 280 85 289C119 395 185 420 219 420C238 420 273 411 273 353C273 322 256 255 219 115C203 53 168 11 124 11C118 11 95 11 74 24C99 29 121 50 121 78C121 105 99 113 84 113C54 113 29 87 29 55C29 9 79 -11 123 -11C189 -11 225 59 228 65C240 28 276 -11 336 -11C439 -11 496 118 496 143C496 153 487 153 484 153C475 153 473 149 471 142C438 35 370 11 338 11C299 11 283 43 283 77C283 99 289 121 300 165L334 302C340 328 363 420 433 420C438 420 462 420 483 407C455 402 435 377 435 353C435 337 446 318 473 318C495 318 527 336 527 376Z" stroke="rgb(0,0,0)" stroke-opacity="1" stroke-width="8" fill="rgb(0,0,0)" fill-opacity="1"></path></g></g><g><g><g><g><g transform="matrix(1,0,0,1,32.025,129.81249999999991)"><path transform="matrix(0.0119,0,0,-0.0119,0,0)" d="M449 174L424 174C419 144 412 100 402 85C395 77 329 77 307 77L127 77L233 180C389 318 449 372 449 472C449 586 359 666 237 666C124 666 50 574 50 485C50 429 100 429 103 429C120 429 155 441 155 482C155 508 137 534 102 534C94 534 92 534 89 533C112 598 166 635 224 635C315 635 358 554 358 472C358 392 308 313 253 251L61 37C50 26 50 24 50 0L421 0Z" stroke="rgb(0,0,0)" stroke-opacity="1" stroke-width="8" fill="rgb(0,0,0)" fill-opacity="1"></path></g></g></g></g></g></g></g><g><g><g><g transform="matrix(1,0,0,1,21.799999999999997,286.79999999999995)"><path transform="matrix(0.017,0,0,-0.017,0,0)" d="M527 376C527 428 468 442 434 442C376 442 341 389 329 366C304 432 250 442 221 442C117 442 60 313 60 288C60 278 72 278 72 278C80 278 83 280 85 289C119 395 185 420 219 420C238 420 273 411 273 353C273 322 256 255 219 115C203 53 168 11 124 11C118 11 95 11 74 24C99 29 121 50 121 78C121 105 99 113 84 113C54 113 29 87 29 55C29 9 79 -11 123 -11C189 -11 225 59 228 65C240 28 276 -11 336 -11C439 -11 496 118 496 143C496 153 487 153 484 153C475 153 473 149 471 142C438 35 370 11 338 11C299 11 283 43 283 77C283 99 289 121 300 165L334 302C340 328 363 420 433 420C438 420 462 420 483 407C455 402 435 377 435 353C435 337 446 318 473 318C495 318 527 336 527 376Z" stroke="rgb(0,0,0)" stroke-opacity="1" stroke-width="8" fill="rgb(0,0,0)" fill-opacity="1"></path></g></g><g><g><g><g><g transform="matrix(1,0,0,1,32.025,289.8124999999999)"><path transform="matrix(0.0119,0,0,-0.0119,0,0)" d="M881 672C881 672 881 683 868 683C835 683 800 680 767 680C733 680 698 683 665 683C659 683 647 683 647 663C647 652 657 652 665 652C722 651 733 630 733 608C733 605 731 590 730 587L618 142L397 664C389 682 388 683 365 683L231 683C211 683 202 683 202 663C202 652 211 652 230 652C235 652 298 652 298 643L164 106C154 66 137 34 56 31C50 31 39 30 39 11C39 4 44 0 52 0C84 0 119 3 152 3C186 3 222 0 255 0C260 0 273 0 273 20C273 30 264 31 253 31C195 33 187 55 187 75C187 82 188 87 191 98L323 626C327 620 327 618 332 608L581 19C588 2 591 0 600 0C611 0 611 3 616 21L756 578C766 618 784 649 864 652C869 652 881 653 881 672Z" stroke="rgb(0,0,0)" stroke-opacity="1" stroke-width="8" fill="rgb(0,0,0)" fill-opacity="1"></path></g></g></g></g></g></g></g><g><g><g><g transform="matrix(1,0,0,1,151.8,76.79999999999995)"><path transform="matrix(0.017,0,0,-0.017,0,0)" d="M691 372C691 427 664 442 647 442C622 442 597 416 597 394C597 381 603 375 612 367C623 356 648 330 648 282C648 248 619 150 593 99C567 46 532 11 483 11C436 11 409 41 409 98C409 126 416 157 420 171L462 339C467 361 477 398 477 404C477 422 463 431 448 431C436 431 418 423 411 403C408 396 361 205 354 179C347 149 345 131 345 113C345 102 345 100 346 95C323 42 293 11 254 11C174 11 174 85 174 102C174 134 179 173 226 296C237 326 243 340 243 360C243 405 210 442 161 442C66 442 29 297 29 288C29 278 41 278 41 278C51 278 52 280 57 296C84 389 123 420 158 420C167 420 183 419 183 387C183 362 172 334 165 317C121 199 109 153 109 115C109 24 176 -11 251 -11C268 -11 315 -11 355 59C381 -5 450 -11 480 -11C555 -11 599 52 625 112C659 190 691 324 691 372Z" stroke="rgb(0,0,0)" stroke-opacity="1" stroke-width="8" fill="rgb(0,0,0)" fill-opacity="1"></path></g></g><g><g><g><g><g transform="matrix(1,0,0,1,164.475,79.81249999999991)"><path transform="matrix(0.0119,0,0,-0.0119,0,0)" d="M419 0L419 31L387 31C297 31 294 42 294 79L294 640C294 664 294 666 271 666C209 602 121 602 89 602L89 571C109 571 168 571 220 597L220 79C220 43 217 31 127 31L95 31L95 0C130 3 217 3 257 3C297 3 384 3 419 0Z" stroke="rgb(0,0,0)" stroke-opacity="1" stroke-width="8" fill="rgb(0,0,0)" fill-opacity="1"></path></g></g></g></g></g></g></g><g><g><g><g><g transform="matrix(1,0,0,1,272.8,196.30999999999986)"><path transform="matrix(0.022949999999999998,0,0,-0.022949999999999998,0,0)" d="M999 -101L974 -101C949 -176 882 -237 797 -266C781 -271 712 -295 565 -295L140 -295L487 134C494 143 496 146 496 150C496 154 495 155 489 164L164 610L560 610C674 610 904 603 974 416L999 416L913 650L84 650C57 650 56 649 56 618L421 116L66 -323C58 -333 57 -335 57 -339C57 -350 66 -350 84 -350L913 -350Z" stroke="rgb(0,0,0)" stroke-opacity="1" stroke-width="8" fill="rgb(0,0,0)" fill-opacity="1"></path></g></g></g></g></g><g><g><g><g transform="matrix(1,0,0,1,309.625,198.41249999999982)"><path transform="matrix(0.020399999999999998,0,0,-0.020399999999999998,0,0)" d="M552 636C552 682 506 705 465 705C431 705 368 687 338 588C332 567 329 557 305 431L236 431C217 431 206 431 206 412C206 400 215 400 234 400L300 400L225 5C207 -92 190 -183 138 -183C134 -183 109 -183 90 -165C136 -162 145 -126 145 -111C145 -88 127 -76 108 -76C82 -76 53 -98 53 -136C53 -181 97 -205 138 -205C193 -205 233 -146 251 -108C283 -45 306 76 307 83L367 400L453 400C473 400 483 400 483 420C483 431 473 431 456 431L373 431C384 489 383 487 394 545C398 566 412 637 418 649C427 668 444 683 465 683C469 683 495 683 514 665C470 661 460 626 460 611C460 588 478 576 497 576C523 576 552 598 552 636Z" stroke="rgb(0,0,0)" stroke-opacity="1" stroke-width="8" fill="rgb(0,0,0)" fill-opacity="1"></path></g></g></g></g><g><g><g><g transform="matrix(1,0,0,1,297.125,30.137499999999818)"><path transform="matrix(0.017,0,0,-0.017,0,0)" d="M415 282C415 373 362 442 282 442C236 442 195 413 165 382L239 683C239 683 239 694 226 694C203 694 130 686 104 684C96 683 85 682 85 664C85 652 94 652 109 652C157 652 159 645 159 635C159 628 150 594 145 573L63 247C51 197 47 181 47 146C47 51 100 -11 174 -11C292 -11 415 138 415 282ZM343 326C343 267 310 152 292 114C259 47 213 11 174 11C140 11 107 38 107 112C107 131 107 150 123 213L145 305C151 327 151 329 160 340C209 405 254 420 280 420C316 420 343 390 343 326Z" stroke="rgb(0,0,0)" stroke-opacity="1" stroke-width="8" fill="rgb(0,0,0)" fill-opacity="1"></path></g></g></g></g><g><g><g><g transform="matrix(1,0,0,1,151.8,126.79999999999995)"><path transform="matrix(0.017,0,0,-0.017,0,0)" d="M691 372C691 427 664 442 647 442C622 442 597 416 597 394C597 381 603 375 612 367C623 356 648 330 648 282C648 248 619 150 593 99C567 46 532 11 483 11C436 11 409 41 409 98C409 126 416 157 420 171L462 339C467 361 477 398 477 404C477 422 463 431 448 431C436 431 418 423 411 403C408 396 361 205 354 179C347 149 345 131 345 113C345 102 345 100 346 95C323 42 293 11 254 11C174 11 174 85 174 102C174 134 179 173 226 296C237 326 243 340 243 360C243 405 210 442 161 442C66 442 29 297 29 288C29 278 41 278 41 278C51 278 52 280 57 296C84 389 123 420 158 420C167 420 183 419 183 387C183 362 172 334 165 317C121 199 109 153 109 115C109 24 176 -11 251 -11C268 -11 315 -11 355 59C381 -5 450 -11 480 -11C555 -11 599 52 625 112C659 190 691 324 691 372Z" stroke="rgb(0,0,0)" stroke-opacity="1" stroke-width="8" fill="rgb(0,0,0)" fill-opacity="1"></path></g></g><g><g><g><g><g transform="matrix(1,0,0,1,164.475,129.81249999999991)"><path transform="matrix(0.0119,0,0,-0.0119,0,0)" d="M449 174L424 174C419 144 412 100 402 85C395 77 329 77 307 77L127 77L233 180C389 318 449 372 449 472C449 586 359 666 237 666C124 666 50 574 50 485C50 429 100 429 103 429C120 429 155 441 155 482C155 508 137 534 102 534C94 534 92 534 89 533C112 598 166 635 224 635C315 635 358 554 358 472C358 392 308 313 253 251L61 37C50 26 50 24 50 0L421 0Z" stroke="rgb(0,0,0)" stroke-opacity="1" stroke-width="8" fill="rgb(0,0,0)" fill-opacity="1"></path></g></g></g></g></g></g></g><g><g><g><g transform="matrix(1,0,0,1,151.8,286.79999999999995)"><path transform="matrix(0.017,0,0,-0.017,0,0)" d="M691 372C691 427 664 442 647 442C622 442 597 416 597 394C597 381 603 375 612 367C623 356 648 330 648 282C648 248 619 150 593 99C567 46 532 11 483 11C436 11 409 41 409 98C409 126 416 157 420 171L462 339C467 361 477 398 477 404C477 422 463 431 448 431C436 431 418 423 411 403C408 396 361 205 354 179C347 149 345 131 345 113C345 102 345 100 346 95C323 42 293 11 254 11C174 11 174 85 174 102C174 134 179 173 226 296C237 326 243 340 243 360C243 405 210 442 161 442C66 442 29 297 29 288C29 278 41 278 41 278C51 278 52 280 57 296C84 389 123 420 158 420C167 420 183 419 183 387C183 362 172 334 165 317C121 199 109 153 109 115C109 24 176 -11 251 -11C268 -11 315 -11 355 59C381 -5 450 -11 480 -11C555 -11 599 52 625 112C659 190 691 324 691 372Z" stroke="rgb(0,0,0)" stroke-opacity="1" stroke-width="8" fill="rgb(0,0,0)" fill-opacity="1"></path></g></g><g><g><g><g><g transform="matrix(1,0,0,1,164.475,289.8124999999999)"><path transform="matrix(0.0119,0,0,-0.0119,0,0)" d="M881 672C881 672 881 683 868 683C835 683 800 680 767 680C733 680 698 683 665 683C659 683 647 683 647 663C647 652 657 652 665 652C722 651 733 630 733 608C733 605 731 590 730 587L618 142L397 664C389 682 388 683 365 683L231 683C211 683 202 683 202 663C202 652 211 652 230 652C235 652 298 652 298 643L164 106C154 66 137 34 56 31C50 31 39 30 39 11C39 4 44 0 52 0C84 0 119 3 152 3C186 3 222 0 255 0C260 0 273 0 273 20C273 30 264 31 253 31C195 33 187 55 187 75C187 82 188 87 191 98L323 626C327 620 327 618 332 608L581 19C588 2 591 0 600 0C611 0 611 3 616 21L756 578C766 618 784 649 864 652C869 652 881 653 881 672Z" stroke="rgb(0,0,0)" stroke-opacity="1" stroke-width="8" fill="rgb(0,0,0)" fill-opacity="1"></path></g></g></g></g></g></g></g><g><g><g><g transform="matrix(1,0,0,1,427.800048828125,196.79999999999995)"><path transform="matrix(0.017,0,0,-0.017,0,0)" d="M490 404C490 422 476 431 461 431C451 431 435 425 426 410C424 405 416 374 412 356L392 276L347 96C343 81 300 11 234 11C183 11 172 55 172 92C172 138 189 200 223 288C239 329 243 340 243 360C243 405 211 442 161 442C66 442 29 297 29 288C29 278 41 278 41 278C51 278 52 280 57 296C84 390 124 420 158 420C166 420 183 420 183 388C183 363 173 337 166 318C126 212 108 155 108 108C108 19 171 -11 230 -11C269 -11 303 6 331 34C318 -18 306 -67 266 -120C240 -154 202 -183 156 -183C142 -183 97 -180 80 -141C96 -141 109 -141 123 -129C133 -120 143 -107 143 -88C143 -57 116 -53 106 -53C83 -53 50 -69 50 -118C50 -168 94 -205 156 -205C259 -205 362 -114 390 -1L486 381C490 395 490 397 490 404Z" stroke="rgb(0,0,0)" stroke-opacity="1" stroke-width="8" fill="rgb(0,0,0)" fill-opacity="1"></path></g></g></g></g></svg>
</svg>
